<?xml version="1.0" encoding="UTF-8"?>
<svg xmlns="http://www.w3.org/2000/svg" xmlns:xlink="http://www.w3.org/1999/xlink" width="500px" height="90px" viewBox="0 0 500 90" version="1.1">
<g id="surface1">
<path style=" stroke:none;fill-rule:evenodd;fill:rgb(5.098039%,20.784314%,56.862745%);fill-opacity:1;" d="M 461.261719 0.996094 C 453.609375 0.996094 446.589844 2.675781 440.917969 5.441406 C 440.289062 5.746094 439.679688 6.042969 439.085938 6.378906 C 429.609375 11.320312 423.433594 20.550781 426.148438 35.765625 C 426.976562 40.570312 429.117188 41.8125 433.269531 44.449219 L 435.585938 43.347656 C 442.878906 49.402344 443.179688 48.078125 449.871094 49.789062 C 450.269531 49.878906 450.609375 49.984375 450.96875 50.074219 L 451.007812 49.992188 C 451.222656 50.089844 451.4375 50.167969 451.660156 50.234375 C 451.871094 50.285156 452.09375 50.351562 452.3125 50.398438 C 452.488281 50.433594 452.660156 50.457031 452.839844 50.480469 C 453.472656 50.570312 454.113281 50.609375 454.753906 50.683594 C 456.144531 50.851562 457.496094 51.21875 458.820312 51.621094 C 460.078125 52.011719 461.320312 52.425781 462.566406 52.84375 C 463.125 52.976562 463.636719 53.183594 464.152344 53.414062 L 471.070312 55.699219 L 471.515625 60.386719 C 473.039062 65.285156 470.277344 66.332031 465.617188 67.761719 L 465.535156 67.886719 C 463.894531 67.828125 461.40625 67.808594 457.03125 67.355469 C 455.726562 66.90625 454.4375 66.4375 453.246094 65.847656 C 452.070312 64.902344 450.976562 63.714844 449.910156 62.382812 L 447.917969 58.511719 L 448.039062 58.429688 C 447.945312 58.191406 447.777344 57.96875 447.550781 57.777344 C 447.535156 57.765625 447.523438 57.746094 447.507812 57.734375 C 447.195312 57.476562 446.722656 57.273438 446.207031 57.082031 L 422.609375 57.082031 L 422.609375 85.574219 L 428.34375 85.574219 C 433.234375 84.050781 430.089844 86.734375 430.828125 82.4375 L 430.867188 79.992188 L 433.308594 82.4375 L 434.285156 82.4375 L 435.097656 79.992188 C 435.59375 80.285156 436.078125 80.554688 436.5625 80.847656 C 437.726562 81.628906 438.976562 82.34375 440.308594 83.007812 C 440.351562 83.03125 440.386719 83.066406 440.429688 83.089844 C 441.007812 83.398438 441.5625 83.683594 442.136719 83.945312 C 442.273438 83.976562 442.410156 83.996094 442.546875 84.027344 C 447.84375 86.246094 454.148438 87.574219 460.9375 87.574219 C 471.054688 87.574219 480.085938 84.695312 486.289062 80.152344 C 489.015625 79.882812 491.496094 78.421875 493.53125 76.117188 C 493.59375 76.175781 493.617188 76.222656 493.691406 76.28125 C 495.589844 74.136719 496.90625 71.433594 497.640625 68.375 C 498.316406 66.054688 498.699219 63.511719 498.699219 60.832031 C 498.699219 56.023438 497.476562 51.628906 495.484375 48.238281 C 495.460938 48.195312 495.421875 48.160156 495.402344 48.117188 C 493.511719 44.160156 490.785156 40.914062 487.304688 39.230469 C 480.476562 35.949219 474.425781 35.320312 467.367188 33.566406 C 461.738281 32.179688 449.824219 30.71875 452.636719 23.742188 L 454.875 20.113281 L 454.835938 19.867188 C 454.898438 19.851562 454.972656 19.84375 455.039062 19.828125 L 455.242188 19.503906 L 455.566406 19.707031 C 458.011719 19.195312 460.675781 19.125 463.460938 19.582031 C 463.679688 19.621094 463.894531 19.660156 464.113281 19.707031 L 464.273438 19.625 L 464.316406 19.746094 C 464.371094 19.757812 464.421875 19.777344 464.476562 19.789062 C 466.472656 20.203125 468.410156 20.832031 470.253906 21.703125 L 470.335938 22.070312 L 469.15625 23.089844 L 473.105469 27.125 L 473.023438 27.246094 C 474.089844 28.4375 474.714844 29.761719 474.773438 30.914062 L 496.621094 31.039062 L 495.851562 23.414062 L 495.15625 20.359375 C 495.148438 20.324219 495.125 20.308594 495.117188 20.277344 C 494.988281 19.832031 494.894531 19.457031 494.75 19.175781 C 494.65625 18.992188 494.597656 18.863281 494.507812 18.6875 C 491.5 8.605469 477.761719 0.996094 461.261719 0.996094 Z M 461.261719 0.996094 "/>
<path style=" stroke:none;fill-rule:nonzero;fill:rgb(17.254902%,30.980392%,62.352941%);fill-opacity:1;" d="M 289.386719 45.875 L 289.386719 88.429688 L 290.960938 88.46875 L 292.683594 45.949219 Z M 289.386719 45.875 "/>
<path style=" stroke:none;fill-rule:nonzero;fill:rgb(5.098039%,20.784314%,56.862745%);fill-opacity:1;" d="M 289.550781 3.046875 L 289.347656 3.167969 L 265.867188 3.167969 L 265.867188 85.679688 L 289.835938 85.679688 L 289.835938 45.960938 L 311.726562 80.300781 L 313.761719 84.0625 L 313.761719 85.679688 L 340.25 85.679688 L 340.25 3.167969 L 313.761719 3.167969 L 313.761719 41.027344 L 289.835938 3.492188 L 289.835938 3.167969 L 289.632812 3.167969 Z M 289.550781 3.046875 "/>
<path style=" stroke:none;fill-rule:nonzero;fill:rgb(17.254902%,30.980392%,62.352941%);fill-opacity:1;" d="M 255.574219 3.027344 L 255.574219 85.691406 L 231.933594 85.691406 L 231.933594 86.34375 L 232.21875 88.625 L 258.75 88.625 L 258.75 3.027344 Z M 255.574219 3.027344 "/>
<path style=" stroke:none;fill-rule:evenodd;fill:rgb(5.098039%,20.784314%,56.862745%);fill-opacity:1;" d="M 5.90625 86.746094 L 6.226562 3.046875 L 0.230469 3.09375 L 0 85.449219 Z M 5.90625 86.746094 "/>
<path style=" stroke:none;fill-rule:nonzero;fill:rgb(5.098039%,20.784314%,56.862745%);fill-opacity:1;" d="M 16.40625 3.046875 L 25.519531 3.046875 L 25.519531 88.640625 L 16.40625 88.640625 Z M 16.40625 3.046875 "/>
<path style=" stroke:none;fill-rule:evenodd;fill:rgb(17.254902%,30.980392%,62.352941%);fill-opacity:1;" d="M 0 85.453125 L 0.09375 88.457031 L 8.304688 88.640625 L 8.535156 5.496094 C 7.519531 1.707031 9.367188 4.339844 6.226562 3.046875 L 5.90625 86.746094 Z M 0 85.453125 "/>
<path style=" stroke:none;fill-rule:evenodd;fill:rgb(5.098039%,20.784314%,56.862745%);fill-opacity:1;" d="M 101.730469 34.84375 L 102.5625 51.941406 L 117.046875 51.941406 C 118.800781 50.972656 114.878906 50 120.96875 51.34375 L 120.230469 53.144531 C 125.90625 69.96875 111.925781 65.390625 97.671875 65.390625 L 97.625 25.042969 C 98.917969 21.808594 96.890625 23.984375 100.765625 22.921875 L 114.742188 23.363281 C 118.570312 25.210938 116.539062 23.378906 118.753906 26.109375 C 121.339844 29.34375 119.289062 26.984375 120.996094 30.636719 L 118.480469 32.160156 C 112.710938 36.460938 109.390625 34.84375 101.777344 34.84375 Z M 69.621094 3.046875 L 122.632812 3.046875 C 124.570312 3.230469 126.230469 3.414062 127.523438 3.691406 C 150.453125 8.453125 146.207031 35.582031 140.394531 39.695312 C 135.273438 39.140625 138.226562 37.847656 134.027344 39.648438 C 136.242188 42.605469 133.84375 41.21875 139.195312 42.238281 C 150.265625 49.261719 150.914062 66.457031 143.761719 76.4375 C 141.039062 73.710938 140.070312 75.882812 137.488281 78.148438 C 134.535156 80.734375 134.371094 81.171875 130.3125 81.820312 L 129.644531 83.46875 L 132.585938 83.46875 C 132.679688 80.699219 132.660156 81.289062 126.109375 83.460938 C 122.046875 84.804688 123.964844 82.863281 121.292969 86.054688 L 119.308594 87.4375 L 119.679688 85.589844 C 117.371094 84.847656 119.285156 85.242188 116.472656 85.101562 L 69.621094 85.589844 L 69.621094 3.042969 Z M 69.621094 3.046875 "/>
<path style=" stroke:none;fill-rule:evenodd;fill:rgb(17.254902%,30.980392%,62.352941%);fill-opacity:1;" d="M 102.5625 51.941406 L 101.730469 34.84375 C 97.441406 35.8125 99.933594 33.546875 98.917969 37.292969 L 98.960938 51.757812 L 102.609375 51.988281 Z M 102.5625 51.941406 "/>
<path style=" stroke:none;fill-rule:evenodd;fill:rgb(5.098039%,20.784314%,56.862745%);fill-opacity:1;" d="M 138.183594 47.503906 L 140.855469 33.753906 C 129.449219 30.699219 136.023438 23.570312 126.675781 33.5 C 131.605469 49.796875 126.265625 42.15625 138.183594 47.757812 Z M 138.183594 47.503906 "/>
<path style=" stroke:none;fill-rule:evenodd;fill:rgb(17.254902%,30.980392%,62.352941%);fill-opacity:1;" d="M 97.625 25.046875 L 114.742188 25.046875 L 114.742188 22.550781 L 100.117188 22.597656 C 96.242188 23.660156 98.917969 21.808594 97.625 25.046875 Z M 97.625 25.046875 "/>
<path style=" stroke:none;fill-rule:evenodd;fill:rgb(17.254902%,30.980392%,62.352941%);fill-opacity:1;" d="M 120.230469 53.144531 L 120.96875 51.34375 C 114.878906 50 118.753906 50.925781 117.046875 51.941406 L 120.277344 53.144531 Z M 120.230469 53.144531 "/>
<path style=" stroke:none;fill-rule:evenodd;fill:rgb(5.098039%,20.784314%,56.862745%);fill-opacity:1;" d="M 178.316406 25.046875 L 177.441406 23.058594 C 184.5 22.179688 192.207031 22.757812 198.941406 24.835938 L 198.085938 26.582031 L 199.339844 27.644531 L 199.804688 26.925781 C 201.460938 32.199219 199.355469 26.019531 202.027344 32.28125 L 200.277344 33.132812 C 197.234375 41.269531 189.113281 38.125 180.949219 38.773438 L 180.71875 55.273438 L 192.34375 55.316406 L 193.542969 58.136719 C 196.542969 64.007812 197.417969 59.617188 199.402344 67.519531 C 200.742188 72.925781 199.910156 76.484375 201.480469 82.308594 C 204.617188 84.296875 202.953125 84.664062 206.507812 85.589844 L 230.777344 85.453125 C 228.792969 80.230469 228.332031 79.351562 228.332031 73.433594 L 225.378906 72.878906 L 227.085938 70.292969 C 225.242188 50.601562 224.4375 60.792969 217.304688 47.554688 C 215.042969 46.304688 214.949219 49.910156 215.875 44.226562 C 221.039062 40.945312 230.40625 33.410156 224.824219 25.96875 L 228.285156 24.675781 C 226.761719 10.117188 213.890625 3.738281 200.417969 3.046875 L 150.175781 3.046875 L 150.175781 88.640625 L 178.273438 88.640625 Z M 178.316406 25.046875 "/>
<path style=" stroke:none;fill-rule:nonzero;fill:rgb(5.098039%,20.784314%,56.862745%);fill-opacity:1;" d="M 211.351562 44.757812 C 212.648438 42.285156 214.089844 40.054688 215.40625 37.605469 C 217.199219 34.429688 218.878906 31.046875 220.511719 27.617188 C 221.746094 25.25 222.84375 22.695312 224.039062 20.265625 C 224.308594 19.773438 224.574219 19.28125 224.84375 18.789062 C 224.84375 18.789062 227.746094 23.558594 227.746094 23.558594 C 227.527344 23.957031 227.304688 24.355469 227.085938 24.757812 C 225.902344 27.15625 224.820312 29.683594 223.597656 32.019531 C 221.910156 35.558594 220.179688 39.054688 218.328125 42.335938 C 217.105469 44.59375 215.8125 46.722656 214.550781 48.914062 C 214.550781 48.914062 211.351562 44.757812 211.351562 44.757812 Z M 211.351562 44.757812 "/>
<path style=" stroke:none;fill-rule:evenodd;fill:rgb(17.254902%,30.980392%,62.352941%);fill-opacity:1;" d="M 193.496094 58.042969 L 192.296875 55.226562 L 180.671875 55.179688 C 183.023438 58.253906 181.222656 56.449219 183.117188 58.042969 Z M 193.496094 58.042969 "/>
<path style=" stroke:none;fill-rule:evenodd;fill:rgb(17.254902%,30.980392%,62.352941%);fill-opacity:1;" d="M 185.425781 22.394531 C 182.625 22.390625 179.828125 22.554688 177.164062 22.886719 L 177.976562 24.761719 L 178.304688 25.046875 C 184.761719 25.046875 192.417969 24.574219 198.324219 26.839844 L 198.363281 26.757812 L 198.484375 26.839844 C 200.738281 29.546875 199.398438 34.632812 199.054688 35.441406 L 203.125 32.339844 C 202.417969 27.628906 202.476562 26.613281 198.933594 24.230469 C 198.875 24.191406 198.832031 24.148438 198.769531 24.109375 L 198.730469 24.191406 C 194.597656 22.960938 190.015625 22.40625 185.425781 22.394531 Z M 199.015625 35.480469 C 199.007812 35.578125 199.011719 35.585938 199.054688 35.480469 Z M 199.015625 35.480469 "/>
<path style=" stroke:none;fill-rule:evenodd;fill:rgb(17.254902%,30.980392%,62.352941%);fill-opacity:1;" d="M 230.730469 85.40625 L 206.460938 85.542969 C 202.910156 84.621094 204.570312 84.25 201.433594 82.261719 L 202.726562 88.457031 L 226.992188 88.640625 L 229.953125 88.640625 C 230.070312 86.777344 230.597656 90.871094 230.683594 85.40625 Z M 230.730469 85.40625 "/>
<path style=" stroke:none;fill-rule:nonzero;fill:rgb(17.254902%,30.980392%,62.352941%);fill-opacity:1;" d="M 217.398438 45.304688 C 220.296875 47.179688 222.777344 49.808594 224.457031 53.488281 C 225.035156 54.761719 225.457031 56.152344 225.957031 57.484375 C 228.242188 65 230.054688 74.226562 230.554688 82.234375 C 230.648438 84.496094 231.566406 86.328125 231.378906 88.585938 L 225.359375 87.09375 L 226.570312 86.863281 C 226.90625 85.09375 226.347656 83.09375 226.464844 81.304688 C 226.011719 73.980469 224.125 66.816406 222.105469 59.910156 C 221.730469 58.855469 221.417969 57.761719 220.984375 56.75 C 219.707031 53.789062 217.78125 51.777344 215.488281 50.308594 Z M 217.398438 45.304688 "/>
<path style=" stroke:none;fill-rule:evenodd;fill:rgb(17.254902%,30.980392%,62.352941%);fill-opacity:1;" d="M 228.285156 73.386719 C 228.285156 68.304688 228.652344 71.261719 227.085938 70.246094 L 225.378906 72.832031 L 228.332031 73.386719 Z M 228.285156 73.386719 "/>
<path style=" stroke:none;fill-rule:evenodd;fill:rgb(17.254902%,30.980392%,62.352941%);fill-opacity:1;" d="M 217.304688 47.507812 C 218.964844 46.859375 218.734375 47.414062 217.949219 45.796875 C 217.441406 43.347656 219.289062 43.484375 215.875 44.179688 C 214.90625 49.863281 215.042969 46.210938 217.304688 47.507812 Z M 217.304688 47.507812 "/>
<path style=" stroke:none;fill-rule:evenodd;fill:rgb(17.254902%,30.980392%,62.352941%);fill-opacity:1;" d="M 215.875 44.226562 C 219.242188 43.484375 217.441406 43.347656 217.949219 45.84375 C 227.730469 43.671875 228.285156 33.917969 228.285156 24.675781 L 224.824219 25.96875 C 230.40625 33.410156 221.042969 40.945312 215.875 44.226562 Z M 215.875 44.226562 "/>
<path style=" stroke:none;fill-rule:evenodd;fill:rgb(17.254902%,30.980392%,62.352941%);fill-opacity:1;" d="M 435.554688 43.230469 L 433.308594 44.332031 C 436.921875 48.945312 447.503906 51.539062 454.570312 53.667969 L 454.898438 53.75 C 455.320312 53.875 455.851562 54.03125 456.246094 54.15625 L 456.246094 54.074219 L 456.53125 54.15625 L 458.410156 54.644531 C 458.554688 54.679688 458.714844 54.734375 458.859375 54.765625 L 458.9375 54.765625 C 459.082031 54.796875 459.207031 54.859375 459.347656 54.890625 C 461.375 55.328125 463.226562 55.632812 465.183594 56.558594 C 470.226562 58.964844 466.789062 58.738281 471.507812 60.308594 L 471.550781 60.269531 L 471.101562 55.542969 L 461.265625 52.320312 C 460.757812 52.300781 460.449219 52.246094 460.246094 52.199219 C 460.136719 52.234375 459.984375 52.289062 459.878906 52.320312 L 459.960938 51.953125 L 458.449219 51.585938 L 455.46875 50.8125 L 455.429688 50.691406 C 452.882812 50.460938 451.722656 50.046875 449.917969 49.632812 C 443.210938 47.921875 442.863281 49.285156 435.554688 43.230469 Z M 460.246094 52.199219 C 463.800781 51.097656 458.78125 51.867188 460.246094 52.199219 Z M 460.246094 52.199219 "/>
<path style=" stroke:none;fill-rule:nonzero;fill:rgb(17.254902%,30.980392%,62.352941%);fill-opacity:1;" d="M 229.566406 87.976562 L 231.402344 87.976562 L 231.402344 88.640625 L 229.566406 88.640625 Z M 229.566406 87.976562 "/>
<path style=" stroke:none;fill-rule:evenodd;fill:rgb(17.254902%,30.980392%,62.352941%);fill-opacity:1;" d="M 117.660156 25.5 C 120.019531 28.148438 118.0625 33.488281 118.132812 32.835938 L 121.644531 30.515625 C 120.992188 26.449219 121.316406 25.300781 117.925781 23.199219 L 117.265625 25.253906 Z M 117.660156 25.5 "/>
<path style=" stroke:none;fill-rule:nonzero;fill:rgb(17.254902%,30.980392%,62.352941%);fill-opacity:1;" d="M 117.003906 22.902344 C 115.359375 22.386719 113.941406 23.304688 113.574219 24.921875 C 114.605469 24.714844 115.785156 24.761719 117.089844 25.171875 C 118.214844 25.527344 119.277344 26.113281 120.171875 26.800781 C 119.882812 25.082031 118.585938 23.402344 117.003906 22.902344 Z M 117.003906 22.902344 "/>
<path style=" stroke:none;fill-rule:nonzero;fill:rgb(17.254902%,30.980392%,62.352941%);fill-opacity:1;" d="M 116.511719 22.96875 C 115.035156 22.253906 113.488281 22.769531 112.8125 24.042969 C 113.839844 24.046875 114.964844 24.292969 116.136719 24.863281 C 117.144531 25.351562 118.042969 26.023438 118.765625 26.75 C 118.835938 25.273438 117.929688 23.660156 116.511719 22.972656 Z M 116.511719 22.96875 "/>
<path style=" stroke:none;fill-rule:nonzero;fill:rgb(17.254902%,30.980392%,62.352941%);fill-opacity:1;" d="M 115.914062 23.75 C 114.792969 23.796875 113.84375 24.289062 113.339844 25.054688 L 117.9375 25.054688 L 117.9375 25.871094 C 118.789062 26.054688 119.609375 26.320312 120.332031 26.644531 C 119.886719 25.222656 118.324219 23.957031 116.558594 23.75 C 116.328125 23.722656 116.132812 23.742188 115.914062 23.75 Z M 115.914062 23.75 "/>
<path style=" stroke:none;fill-rule:evenodd;fill:rgb(17.254902%,30.980392%,62.352941%);fill-opacity:1;" d="M 141.886719 73.011719 C 136.5 79.128906 127.203125 83.496094 116.496094 85.035156 C 116.253906 85.019531 116.058594 85.011719 114.949219 84.957031 L 100.261719 85.160156 C 100.136719 85.144531 100.015625 85.132812 99.894531 85.117188 C 99.609375 85.082031 99.324219 85.113281 99.039062 85.160156 L 69.621094 85.566406 C 69.867188 87.898438 69.835938 88.496094 69.988281 88.582031 L 69.988281 88.625 C 69.996094 88.625 70.019531 88.625 70.027344 88.625 L 111.695312 88.625 C 111.695312 88.609375 111.695312 88.597656 111.695312 88.582031 C 126.777344 88.433594 138.183594 84.308594 144.367188 75.621094 Z M 141.886719 73.011719 "/>
<path style=" stroke:none;fill-rule:nonzero;fill:rgb(5.098039%,20.784314%,56.862745%);fill-opacity:1;" d="M 138.957031 32 C 140.894531 36.128906 137.976562 40.625 132.003906 42.769531 L 132.003906 44.703125 C 132.648438 44.597656 133.289062 44.480469 133.917969 44.308594 C 140.273438 42.5625 144.875 35.179688 140.617188 33.765625 C 140.191406 33.109375 139.601562 32.535156 138.957031 32 Z M 138.957031 32 "/>
<path style=" stroke:none;fill-rule:nonzero;fill:rgb(17.254902%,30.980392%,62.352941%);fill-opacity:1;" d="M 16.113281 3.113281 L 13.957031 3.441406 L 13.957031 88.640625 L 16.398438 88.640625 L 16.398438 3.113281 Z M 16.113281 3.113281 "/>
<path style=" stroke:none;fill-rule:nonzero;fill:rgb(5.098039%,20.784314%,56.862745%);fill-opacity:1;" d="M 31.742188 3.046875 L 45.167969 3.046875 L 45.167969 85.589844 L 31.742188 85.589844 Z M 31.742188 3.046875 "/>
<path style=" stroke:none;fill-rule:nonzero;fill:rgb(17.254902%,30.980392%,62.352941%);fill-opacity:1;" d="M 31.738281 85.617188 L 32.0625 88.632812 L 44.960938 88.632812 L 45.164062 86.105469 L 45.164062 85.617188 Z M 31.738281 85.617188 "/>
<path style=" stroke:none;fill-rule:nonzero;fill:rgb(5.098039%,20.784314%,56.862745%);fill-opacity:1;" d="M 231.929688 3.054688 L 255.597656 3.054688 L 255.597656 85.691406 L 231.929688 85.691406 Z M 231.929688 3.054688 "/>
<path style=" stroke:none;fill-rule:nonzero;fill:rgb(17.254902%,30.980392%,62.352941%);fill-opacity:1;" d="M 266.039062 3.15625 L 262.863281 3.484375 L 262.863281 88.46875 L 266.039062 88.46875 Z M 266.039062 3.15625 "/>
<path style=" stroke:none;fill-rule:nonzero;fill:rgb(17.254902%,30.980392%,62.352941%);fill-opacity:1;" d="M 264 85.535156 L 264 86.1875 L 264.28125 88.46875 L 290.640625 88.46875 L 290.640625 85.535156 Z M 264 85.535156 "/>
<path style=" stroke:none;fill-rule:nonzero;fill:rgb(17.254902%,30.980392%,62.352941%);fill-opacity:1;" d="M 291.546875 48.382812 L 291.535156 55.644531 L 312.019531 87.789062 L 315.332031 85.695312 Z M 291.546875 48.382812 "/>
<path style=" stroke:none;fill-rule:nonzero;fill:rgb(17.254902%,30.980392%,62.352941%);fill-opacity:1;" d="M 311.441406 85.535156 L 311.441406 86.1875 L 311.5625 87.042969 L 312.417969 88.46875 L 340.371094 88.46875 L 340.371094 85.535156 Z M 311.441406 85.535156 "/>
<path style=" stroke:none;fill-rule:nonzero;fill:rgb(17.254902%,30.980392%,62.352941%);fill-opacity:1;" d="M 340.039062 3.15625 L 342.074219 3.484375 L 342.074219 88.46875 L 340.039062 88.46875 Z M 340.039062 3.15625 "/>
<path style=" stroke:none;fill-rule:nonzero;fill:rgb(5.098039%,20.784314%,56.862745%);fill-opacity:1;" d="M 348.59375 3.148438 L 348.59375 88.714844 L 374.714844 88.714844 L 374.714844 45.339844 L 382.648438 55.023438 L 382.730469 54.984375 L 383.136719 55.675781 L 383.585938 56.207031 L 383.503906 56.246094 L 395.101562 75.246094 L 395.019531 75.246094 L 401.285156 85.582031 L 428.101562 85.582031 L 433.308594 81.511719 L 411.703125 52.09375 L 410.605469 50.628906 L 410.5625 50.550781 L 404.949219 42.980469 L 404.988281 42.980469 L 404.664062 42.535156 L 403.320312 40.703125 L 402.996094 40.214844 L 430.703125 3.3125 L 399.699219 3.3125 L 376.097656 36.632812 L 376.097656 3.148438 Z M 374.714844 38.382812 L 374.878906 38.382812 L 374.714844 38.585938 Z M 374.714844 38.382812 "/>
<path style=" stroke:none;fill-rule:nonzero;fill:rgb(17.254902%,30.980392%,62.352941%);fill-opacity:1;" d="M 348.875 88.710938 L 345.703125 88.382812 L 345.703125 3.144531 L 348.875 3.144531 Z M 348.875 88.710938 "/>
<path style=" stroke:none;fill-rule:nonzero;fill:rgb(17.254902%,30.980392%,62.352941%);fill-opacity:1;" d="M 375.039062 45.617188 L 374.878906 45.820312 L 374.878906 51.039062 L 380.289062 56.171875 C 384.015625 62.589844 387.886719 68.867188 391.640625 75.25 C 394.230469 79.605469 396.777344 84.023438 399.332031 88.414062 L 399.292969 88.457031 L 399.375 88.457031 C 399.402344 88.507812 399.425781 88.566406 399.453125 88.617188 L 399.617188 88.457031 L 438.191406 88.457031 L 433.308594 81.28125 L 430.664062 81.28125 L 430.664062 85.316406 L 428.507812 85.316406 L 428.507812 85.441406 L 401.367188 85.441406 C 398.90625 81.195312 396.460938 76.925781 393.960938 72.722656 C 390.144531 66.234375 386.226562 59.847656 382.445312 53.320312 L 377.523438 48.183594 L 377.359375 48.347656 Z M 375.039062 45.617188 "/>
<path style=" stroke:none;fill-rule:nonzero;fill:rgb(17.254902%,30.980392%,62.352941%);fill-opacity:1;" d="M 458.394531 17.101562 C 455.375 17.941406 452.746094 19.550781 450.679688 21.609375 L 453.035156 23.742188 C 454.496094 22.59375 456.171875 21.714844 458.039062 21.191406 C 462.546875 19.9375 467.046875 21.054688 470.261719 23.847656 L 472.574219 20.078125 C 469.054688 16.917969 463.796875 15.597656 458.394531 17.101562 Z M 458.394531 17.101562 "/>
<path style=" stroke:none;fill-rule:nonzero;fill:rgb(5.098039%,20.784314%,56.862745%);fill-opacity:1;" d="M 427.902344 83.171875 L 431.699219 83.171875 L 431.699219 85.480469 L 427.902344 85.480469 Z M 427.902344 83.171875 "/>
<path style=" stroke:none;fill-rule:nonzero;fill:rgb(17.254902%,30.980392%,62.352941%);fill-opacity:1;" d="M 430.71875 77.496094 L 432.25 77.496094 L 432.25 85.691406 L 430.71875 85.691406 Z M 430.71875 77.496094 "/>
<path style=" stroke:none;fill-rule:nonzero;fill:rgb(17.254902%,30.980392%,62.352941%);fill-opacity:1;" d="M 430.378906 3.117188 L 402.34375 40.65625 L 404.378906 42.164062 L 429.6875 10.207031 L 432.332031 6.664062 Z M 430.378906 3.117188 "/>
<path style=" stroke:none;fill-rule:nonzero;fill:rgb(5.098039%,20.784314%,56.862745%);fill-opacity:1;" d="M 48.859375 3.046875 L 68.375 3.046875 L 68.375 85.589844 L 48.859375 85.589844 Z M 48.859375 3.046875 "/>
<path style=" stroke:none;fill-rule:nonzero;fill:rgb(17.254902%,30.980392%,62.352941%);fill-opacity:1;" d="M 48.859375 85.617188 L 49.332031 88.632812 L 68.078125 88.632812 L 68.375 86.105469 L 68.375 85.617188 Z M 48.859375 85.617188 "/>
<path style="fill-rule:nonzero;fill:rgb(17.254902%,30.980392%,62.352941%);fill-opacity:1;stroke-width:0.04;stroke-linecap:butt;stroke-linejoin:miter;stroke:rgb(100%,100%,100%);stroke-opacity:1;stroke-miterlimit:1;" d="M 573.988 678.908198 C 570.619 685.77226 560.359 690.752599 548.179 690.752599 C 538.453 690.752599 529.903 687.56614 525.142 682.783458 L 525.142 685.814187 C 529.903 690.59687 538.453 693.783328 548.179 693.783328 C 561.91 693.783328 573.217 687.440359 574.942 679.219656 Z M 573.988 678.908198 " transform="matrix(1.302083,0,0,1.304348,-252.138021,-815.458213)"/>
</g>
</svg>
